<svg width="24" height="24" viewBox="0 0 24 24" fill="none" xmlns="http://www.w3.org/2000/svg">
  <path d="M19 3H5C4.44772 3 4 3.44772 4 4V20C4 20.5523 4.44772 21 5 21H19C19.5523 21 20 20.5523 20 20V4C20 3.44772 19.5523 3 19 3ZM8.66667 18H6.33333V10.5H8.66667V18ZM7.5 9.33333C6.84772 9.33333 6.33333 8.81895 6.33333 8.16667C6.33333 7.51439 6.84772 7 7.5 7C8.15228 7 8.66667 7.51439 8.66667 8.16667C8.66667 8.81895 8.15228 9.33333 7.5 9.33333ZM18 18H15.6667V13.6667C15.6667 13.1144 15.5525 12.5858 15.3388 12.1253C15.1252 11.6647 14.8186 11.2853 14.4445 11.0207C14.0704 10.756 13.6413 10.6144 13.1992 10.6144C12.7571 10.6144 12.328 10.756 11.9539 11.0207C11.5798 11.2853 11.2733 11.6647 11.0597 12.1253C10.846 12.5858 10.7318 13.1144 10.7318 13.6667V18H8.39844V10.5H10.7318V11.5267C11.0852 11.0537 11.5952 10.6825 12.1901 10.4626C12.7851 10.2428 13.4345 10.1854 14.0612 10.2979C14.6879 10.4104 15.2653 10.6871 15.7274 11.1041C16.1895 11.5211 16.5145 12.0624 16.6667 12.6667V18H18Z" fill="currentColor"/>
</svg>
