<?xml version="1.0" encoding="UTF-8"?>
<svg id="Layer_1" data-name="Layer 1" xmlns="http://www.w3.org/2000/svg" viewBox="0 0 520.95 427.62">
  <defs>
    <style>
      .cls-1 {
        fill: #634c9c;
      }

      .cls-1, .cls-2, .cls-3 {
        fill-rule: evenodd;
      }

      .cls-2 {
        fill: #67c0c8;
      }

      .cls-3 {
        fill: #cdbedd;
      }
    </style>
  </defs>
  <g>
    <g>
      <path class="cls-1" d="M257.06,176.12c-8.65-8.65-17.29-17.25-25.94-25.87-7.87,7.93-15.74,15.85-23.59,23.78,8.6,8.6,17.21,17.19,25.81,25.81l.02.02c.84-.84,1.83-1.83,2.91-2.93.37-.34.73-.73,1.12-1.12.52-.52,1.06-1.04,1.6-1.6.41-.43.84-.86,1.27-1.27l2.31-2.31c.52-.54,1.03-1.06,1.57-1.57l3.23-3.23c.54-.56,1.1-1.12,1.66-1.66l1.64-1.64c.54-.54,1.1-1.1,1.64-1.64,1.08-1.1,2.13-2.16,3.21-3.21.26-.28.52-.54.78-.78l.78-.78h-.02Z"/>
      <path class="cls-3" d="M272.59,109.06c-18.41,4.92-36.87,9.81-55.29,14.71,13.63,13.56,27.28,27.13,40.9,40.71,4.81-18.48,9.62-36.94,14.43-55.41h-.04Z"/>
    </g>
    <path class="cls-3" d="M362.8,201.09v.67c0,14.96-6.06,28.48-15.85,38.27l-.02.02c-3.34,3.92-7.03,7.59-10.82,11.06l-2.05,2.05h-.04l-.09-.11-19.02-19.02,2.2-2.2c7.35-7.4,15.7-13.45,18.2-24.49,2.85-13.09-6.32-25.64-18.35-30.04-15.44-6.15-27.75,6.55-37.41,16.95-.35.35-1.06,1.06-2.09,2.09l-.11.11c-.39.41-.86.86-1.34,1.36v.02s-.04.02-.06.04c-4.42,4.4-11.95,11.92-19.19,19.17-6.68,6.68-13.11,13.11-16.65,16.67v.02c-1.27,1.23-2.16,2.11-2.57,2.52-.75.78-1.53,1.53-2.35,2.24-.19.15-.35.3-.54.43-.09.09-.19.17-.3.26,0,.02-.02.02-.04.04-.39.32-.75.6-1.14.88-.43.34-.88.67-1.32.97-.15.11-.3.22-.45.32-.32.22-.63.41-.95.6-.13.09-.24.17-.39.26-.15.09-.28.17-.43.28-.15.06-.28.15-.43.26-.11.04-.19.11-.3.17-.02,0-.02.02-.04.02-.04.02-.09.04-.13.09-.04.02-.09.04-.13.06-.09.04-.15.09-.24.13-.17.09-.37.19-.54.28-.24.15-.47.28-.69.39-.26.15-.52.28-.78.39-.13.06-.24.13-.37.19-.13.04-.26.11-.39.17-.39.19-.75.37-1.14.52h-.02c-.5.24-1.01.45-1.51.65-.35.15-.69.28-1.04.39-.32.13-.65.26-.99.35-.47.17-.95.32-1.42.47-.26.09-.52.15-.78.24-1.06.3-2.11.56-3.19.8-.5.11-1.01.22-1.51.3-.04.02-.09.02-.11.02-.41.06-.82.13-1.23.19-.19.04-.37.06-.54.09-.5.06-.97.13-1.47.17-.45.06-.91.11-1.36.13-.37.04-.73.06-1.12.09-.8.04-1.6.06-2.39.06h-.97c-27.38,0-50.15-26.13-46.19-53.15,4.27-28.22,34.71-45.39,52.46-65.83,6.66,6.68,13.35,13.35,20.03,20.03v.02c-5.91,5.91-11.79,11.86-17.7,17.79-1.96,1.98-3.95,3.95-5.91,5.93h.02l-1.32,1.32-.17.13h.04c-7.16,8.04-24.41,21.65-10.33,35.73,8.91,8.91,15.87,8.99,23.78,2.31.43-.37.86-.73,1.32-1.12l12.48-12.48.02.02c.84-.84,1.83-1.83,2.91-2.93.37-.34.73-.73,1.12-1.12.52-.52,1.06-1.04,1.6-1.6.41-.43.84-.86,1.27-1.27l2.31-2.31c.52-.54,1.03-1.06,1.57-1.57l3.23-3.23c.54-.56,1.1-1.12,1.66-1.66l1.64-1.64c.54-.54,1.1-1.1,1.64-1.64,1.08-1.1,2.13-2.16,3.21-3.21.26-.28.52-.54.78-.78l.78-.78v-.02l13.69-13.69s15.57-16.84,43.21-14.62l-.06.04c2.7.22,5.46.73,8.28,1.53.13.02.22.04.32.09,5.8,1.64,11.9,4.53,18.28,9.01,1.79,1.19,3.54,2.54,5.2,4.1,0,.02.02.02.02.02,9.81,9.12,17.14,24.02,16.78,38.51Z"/>
    <path class="cls-2" d="M237.31,195.87s.06-.06.09-.06c-1.53,1.55-2.91,2.93-4.03,4.05l-.02-.02,3.97-3.97Z"/>
    <path class="cls-2" d="M249.71,183.47c.32-.32.65-.65.97-.95l-1.64,1.64c.22-.24.45-.47.67-.69Z"/>
    <path class="cls-2" d="M251.56,181.62c.26-.26.5-.5.75-.73-.54.54-1.1,1.1-1.64,1.64.28-.3.58-.6.88-.91Z"/>
    <path class="cls-2" d="M257.08,176.12l-.78.78c.24-.26.5-.52.75-.78h.02Z"/>
  </g>
  <path class="cls-1" d="M334.06,253.16l-2.89,2.87-14.58,14.58c-5.26,5.65-10.57,11.3-16.28,16.28-.04.04-.06.06-.11.09-.02.02-.04.04-.09.06-9.62,8.39-20.4,14.83-34.05,16.28-2.07.24-4.12.34-6.17.32-.43,0-.86,0-1.32-.02-.26,0-.52-.02-.8-.02-8.52-.32-16.54-2.63-23.61-6.47-9.27-5-16.88-12.64-21.91-21.91-1.77-3.26-3.21-6.71-4.27-10.35-.02-.02-.02-.04-.04-.06-1.4-4.85-2.18-9.98-2.18-15.29v-.34c.8,0,1.6-.02,2.39-.06.39-.02.75-.04,1.12-.09.45-.02.91-.06,1.36-.13.5-.04.97-.11,1.47-.17.17-.02.34-.04.54-.09.41-.06.82-.13,1.23-.19.02,0,.06,0,.11-.02.5-.09,1.01-.19,1.51-.3,1.08-.24,2.13-.5,3.19-.8.26-.09.52-.15.78-.24.47-.15.95-.3,1.42-.47.34-.09.67-.22.99-.35.35-.11.69-.24,1.04-.39.5-.19,1.01-.41,1.51-.65h.02c.39-.15.75-.32,1.14-.52.13-.06.26-.13.39-.17.13-.06.24-.13.37-.19.26-.11.52-.24.78-.39.22-.11.45-.24.69-.39.17-.09.37-.19.54-.28.09-.04.15-.09.24-.13.04-.02.09-.04.13-.06.04-.04.09-.06.13-.09.02,0,.02-.02.04-.02.11-.06.19-.13.3-.17.15-.11.28-.19.43-.26.15-.11.28-.19.43-.28.15-.09.26-.17.39-.26.32-.19.63-.39.95-.6.15-.11.3-.22.45-.32.43-.3.88-.63,1.32-.97.39-.28.75-.56,1.14-.88.02-.02.04-.02.04-.04.11-.09.22-.17.3-.26.19-.13.34-.28.54-.43.82-.71,1.6-1.47,2.35-2.24.32-.32.95-.95,1.83-1.81l.71-.69-.3.34c-1.01,1.16-2.18,2.89-2.7,3.88-9.68,14.4-.99,33.46,14.79,38.88,16.62,6.53,28.98-8.37,39.44-19.04-12.46-12.53-25.06-25.06-37.56-37.6,7.42-7.46,14.83-14.92,22.25-22.38.47-.47.93-.93,1.34-1.34v-.04l34.82,34.84,21.76,21.76s-.02.04-.04.06l.13.04h.04Z"/>
</svg>